<?xml version="1.0" encoding="UTF-8"?>
<svg width="3300px" height="2200px" viewBox="0 0 3300 2200" xmlns="http://www.w3.org/2000/svg" xmlns:xlink="http://www.w3.org/1999/xlink" version="1.1">
 <!-- Generated by Pixelmator Pro 2.1.2 -->
 <g id="Notes">
  <path id="artboard" d="M0 0 L3300 0 3300 2200 0 2200 Z" fill="#ffffff" fill-opacity="1" stroke="none"/>
  <path id="path" d="M263 292 L3036 292" fill="none" stroke="#000000" stroke-width="0.5" stroke-opacity="1" stroke-linejoin="round" stroke-linecap="round"/>
  <defs>
   <text id="string" transform="matrix(1.0 0.0 0.0 1.0 262.0 307.0)" font-size="16" x="1.0" text-decoration="none" font-family="SFProDisplay-Regular, SF Pro Display" y="15.0">Weight/Scale Variations</text>
  </defs>
  <use id="Weight/Scale-Variations" xlink:href="#string" fill="#000000" fill-opacity="1" stroke="none"/>
  <defs>
   <text id="string-1" transform="matrix(1.0 0.0 0.0 1.0 528.0 307.0)" font-family="SFProDisplay-Regular, SF Pro Display" x="1.0" y="15.0" text-decoration="none" font-size="16">Ultralight</text>
  </defs>
  <use id="Ultralight" xlink:href="#string-1" fill="#000000" fill-opacity="1" stroke="none"/>
  <defs>
   <text id="string-2" transform="matrix(1.0 0.0 0.0 1.0 837.0 307.0)" x="1.0" font-family="SFProDisplay-Regular, SF Pro Display" y="15.0" text-decoration="none" font-size="16">Thin</text>
  </defs>
  <use id="Thin" xlink:href="#string-2" fill="#000000" fill-opacity="1" stroke="none"/>
  <defs>
   <text id="string-3" transform="matrix(1.0 0.0 0.0 1.0 1140.0 307.0)" x="1.0" text-decoration="none" y="15.0" font-family="SFProDisplay-Regular, SF Pro Display" font-size="16">Light</text>
  </defs>
  <use id="Light" xlink:href="#string-3" fill="#000000" fill-opacity="1" stroke="none"/>
  <defs>
   <text id="string-4" transform="matrix(1.0 0.0 0.0 1.0 1422.0 307.0)" font-size="16" text-decoration="none" x="1.0" y="15.0" font-family="SFProDisplay-Regular, SF Pro Display">Regular</text>
  </defs>
  <use id="Regular" xlink:href="#string-4" fill="#000000" fill-opacity="1" stroke="none"/>
  <defs>
   <text id="string-5" transform="matrix(1.0 0.0 0.0 1.0 1716.0 307.0)" text-decoration="none" x="1.0" font-family="SFProDisplay-Regular, SF Pro Display" y="15.0" font-size="16">Medium</text>
  </defs>
  <use id="Medium" xlink:href="#string-5" fill="#000000" fill-opacity="1" stroke="none"/>
  <defs>
   <text id="string-6" transform="matrix(1.0 0.0 0.0 1.0 2008.0 307.0)" font-size="16" x="1.0" text-decoration="none" font-family="SFProDisplay-Regular, SF Pro Display" y="15.0">Semibold</text>
  </defs>
  <use id="Semibold" xlink:href="#string-6" fill="#000000" fill-opacity="1" stroke="none"/>
  <defs>
   <text id="string-7" transform="matrix(1.0 0.0 0.0 1.0 2321.0 307.0)" font-size="16" x="1.0" text-decoration="none" font-family="SFProDisplay-Regular, SF Pro Display" y="15.0">Bold</text>
  </defs>
  <use id="Bold" xlink:href="#string-7" fill="#000000" fill-opacity="1" stroke="none"/>
  <defs>
   <text id="string-8" transform="matrix(1.0 0.0 0.0 1.0 2617.0 307.0)" x="1.0" text-decoration="none" y="15.0" font-family="SFProDisplay-Regular, SF Pro Display" font-size="16">Heavy</text>
  </defs>
  <use id="Heavy" xlink:href="#string-8" fill="#000000" fill-opacity="1" stroke="none"/>
  <defs>
   <text id="string-9" transform="matrix(1.0 0.0 0.0 1.0 2920.0 307.0)" x="1.0" font-family="SFProDisplay-Regular, SF Pro Display" text-decoration="none" font-size="16" y="15.0">Black</text>
  </defs>
  <use id="Black" xlink:href="#string-9" fill="#000000" fill-opacity="1" stroke="none"/>
  <path id="path-1" d="M263 1903 L3036 1903" fill="none" stroke="#000000" stroke-width="0.5" stroke-opacity="1" stroke-linejoin="round" stroke-linecap="round"/>
  <g id="group">
   <path id="Path" d="M272.248 1933.83 C276.555 1933.83 280.139 1930.256 280.139 1925.949 280.139 1921.643 276.545 1918.068 272.238 1918.068 267.941 1918.068 264.367 1921.643 264.367 1925.949 264.367 1930.256 267.951 1933.83 272.248 1933.83 Z M272.248 1932.346 C268.703 1932.346 265.871 1929.504 265.871 1925.949 265.871 1922.395 268.693 1919.553 272.238 1919.553 275.793 1919.553 278.635 1922.395 278.645 1925.949 278.654 1929.504 275.803 1932.346 272.248 1932.346 Z M269.396 1926.682 L271.506 1926.682 271.506 1928.801 C271.506 1929.24 271.799 1929.543 272.229 1929.543 272.678 1929.543 272.971 1929.24 272.971 1928.801 L272.971 1926.682 275.1 1926.682 C275.539 1926.682 275.842 1926.389 275.842 1925.959 275.842 1925.52 275.539 1925.217 275.1 1925.217 L272.971 1925.217 272.971 1923.107 C272.971 1922.658 272.678 1922.355 272.229 1922.355 271.799 1922.355 271.506 1922.658 271.506 1923.107 L271.506 1925.217 269.396 1925.217 C268.947 1925.217 268.645 1925.52 268.645 1925.959 268.645 1926.389 268.947 1926.682 269.396 1926.682 Z" fill="#000000" fill-opacity="1" stroke="none"/>
  </g>
  <g id="group-1">
   <path id="Path-1" d="M293.215 1935.91 C298.664 1935.91 303.176 1931.389 303.176 1925.949 303.176 1920.5 298.654 1915.988 293.205 1915.988 287.766 1915.988 283.254 1920.5 283.254 1925.949 283.254 1931.389 287.776 1935.91 293.215 1935.91 Z M293.215 1934.25 C288.606 1934.25 284.924 1930.559 284.924 1925.949 284.924 1921.34 288.596 1917.648 293.205 1917.648 297.815 1917.648 301.506 1921.34 301.516 1925.949 301.526 1930.559 297.824 1934.25 293.215 1934.25 Z M289.494 1926.77 L292.385 1926.77 292.385 1929.68 C292.385 1930.168 292.717 1930.5 293.196 1930.5 293.684 1930.5 294.026 1930.168 294.026 1929.68 L294.026 1926.77 296.936 1926.77 C297.424 1926.77 297.756 1926.438 297.756 1925.959 297.756 1925.471 297.424 1925.129 296.936 1925.129 L294.026 1925.129 294.026 1922.238 C294.026 1921.73 293.684 1921.398 293.196 1921.398 292.717 1921.398 292.385 1921.74 292.385 1922.238 L292.385 1925.129 289.494 1925.129 C288.986 1925.129 288.654 1925.471 288.654 1925.959 288.654 1926.438 288.996 1926.77 289.494 1926.77 Z" fill="#000000" fill-opacity="1" stroke="none"/>
  </g>
  <g id="group-2">
   <path id="Path-2" d="M319.895 1938.664 C326.858 1938.664 332.619 1932.902 332.619 1925.949 332.619 1918.986 326.848 1913.225 319.885 1913.225 312.932 1913.225 307.18 1918.986 307.18 1925.949 307.18 1932.902 312.942 1938.664 319.895 1938.664 Z M319.895 1936.848 C313.86 1936.848 309.006 1931.984 309.006 1925.949 309.006 1919.904 313.85 1915.051 319.885 1915.051 325.93 1915.051 330.783 1919.904 330.793 1925.949 330.803 1931.984 325.94 1936.848 319.895 1936.848 Z M314.983 1926.857 L318.987 1926.857 318.987 1930.871 C318.987 1931.408 319.358 1931.779 319.875 1931.779 320.412 1931.779 320.783 1931.408 320.783 1930.871 L320.783 1926.857 324.807 1926.857 C325.334 1926.857 325.715 1926.486 325.715 1925.969 325.715 1925.432 325.344 1925.051 324.807 1925.051 L320.783 1925.051 320.783 1921.047 C320.783 1920.49 320.412 1920.119 319.875 1920.119 319.358 1920.119 318.987 1920.5 318.987 1921.047 L318.987 1925.051 314.983 1925.051 C314.426 1925.051 314.055 1925.432 314.055 1925.969 314.055 1926.486 314.436 1926.857 314.983 1926.857 Z" fill="#000000" fill-opacity="1" stroke="none"/>
  </g>
  <defs>
   <text id="string-10" transform="matrix(1.0 0.0 0.0 1.0 262.0 1938.0)" y="15.0" font-size="16" x="1.0" text-decoration="none" font-family="SFProDisplay-Regular, SF Pro Display">Design Variations</text>
  </defs>
  <use id="Design-Variations" xlink:href="#string-10" fill="#000000" fill-opacity="1" stroke="none"/>
  <defs>
   <text id="string-11" transform="matrix(1.0 0.0 0.0 1.0 262.0 1956.0)" x="1.0" font-family="SFProDisplay-Regular, SF Pro Display" font-size="16" y="15.0" text-decoration="none">Symbols are supported in up to nine weights and three scales.</text>
  </defs>
  <use id="Symbols-are-supported-in-up-to-nine-weights-and-three-scales." xlink:href="#string-11" fill="#000000" fill-opacity="1" stroke="none"/>
  <defs>
   <text id="string-12" transform="matrix(1.0 0.0 0.0 1.0 262.0 1974.0)" x="1.0" y="15.0" font-size="16" font-family="SFProDisplay-Regular, SF Pro Display" text-decoration="none">For optimal layout with text and other symbols, vertically align</text>
  </defs>
  <use id="For-optimal-layout-with-text-and-other-symbols,-vertically-align" xlink:href="#string-12" fill="#000000" fill-opacity="1" stroke="none"/>
  <defs>
   <text id="string-13" transform="matrix(1.0 0.0 0.0 1.0 262.0 1992.0)" y="15.0" font-size="16" font-family="SFProDisplay-Regular, SF Pro Display" x="1.0" text-decoration="none">symbols with the adjacent text.</text>
  </defs>
  <use id="symbols-with-the-adjacent-text." xlink:href="#string-13" fill="#000000" fill-opacity="1" stroke="none"/>
  <path id="path-2" d="M776 1919 L776 1933" fill="none" stroke="#00aeef" stroke-width="0.5" stroke-opacity="1" stroke-linejoin="round" stroke-linecap="round"/>
  <g id="group-3">
   <path id="Path-3" d="M779.311 1933.127 C779.828 1933.127 780.082 1932.932 780.268 1932.395 L781.527 1928.938 787.289 1928.938 788.549 1932.395 C788.734 1932.932 788.988 1933.127 789.496 1933.127 790.014 1933.127 790.346 1932.814 790.346 1932.326 790.346 1932.16 790.316 1932.014 790.238 1931.799 L785.658 1919.611 C785.434 1919.006 785.033 1918.713 784.408 1918.713 783.803 1918.713 783.393 1919.006 783.178 1919.602 L778.598 1931.809 C778.52 1932.023 778.49 1932.17 778.49 1932.336 778.49 1932.824 778.803 1933.127 779.311 1933.127 Z M782.006 1927.463 L784.379 1920.891 784.428 1920.891 786.801 1927.463 Z" fill="#000000" fill-opacity="1" stroke="none"/>
  </g>
  <path id="path-3" d="M792.836 1919 L792.836 1933" fill="none" stroke="#00aeef" stroke-width="0.5" stroke-opacity="1" stroke-linejoin="round" stroke-linecap="round"/>
  <defs>
   <text id="string-14" transform="matrix(1.0 0.0 0.0 1.0 775.0 1938.0)" font-size="16" text-decoration="none" y="15.0" x="1.0" font-family="SFProDisplay-Regular, SF Pro Display">Margins</text>
  </defs>
  <use id="Margins" xlink:href="#string-14" fill="#000000" fill-opacity="1" stroke="none"/>
  <defs>
   <text id="string-15" transform="matrix(1.0 0.0 0.0 1.0 775.0 1956.0)" text-decoration="none" x="1.0" font-family="SFProDisplay-Regular, SF Pro Display" y="15.0" font-size="16">Leading and trailing margins on the left and right side of each symbol</text>
  </defs>
  <use id="Leading-and-trailing-margins-on-the-left-and-right-side-of-each-symbol" xlink:href="#string-15" fill="#000000" fill-opacity="1" stroke="none"/>
  <defs>
   <text id="string-16" transform="matrix(1.0 0.0 0.0 1.0 775.0 1974.0)" y="15.0" font-size="16" x="1.0" text-decoration="none" font-family="SFProDisplay-Regular, SF Pro Display">can be adjusted by modifying the x-location of the margin guidelines.</text>
  </defs>
  <use id="can-be-adjusted-by-modifying-the-x-location-of-the-margin-guidelines." xlink:href="#string-16" fill="#000000" fill-opacity="1" stroke="none"/>
  <defs>
   <text id="string-17" transform="matrix(1.0 0.0 0.0 1.0 775.0 1992.0)" font-family="SFProDisplay-Regular, SF Pro Display" font-size="16" x="1.0" text-decoration="none" y="15.0">Modifications are automatically applied proportionally to all</text>
  </defs>
  <use id="Modifications-are-automatically-applied-proportionally-to-all" xlink:href="#string-17" fill="#000000" fill-opacity="1" stroke="none"/>
  <defs>
   <text id="string-18" transform="matrix(1.0 0.0 0.0 1.0 775.0 2010.0)" y="15.0" x="1.0" font-family="SFProDisplay-Regular, SF Pro Display" font-size="16" text-decoration="none">scales and weights.</text>
  </defs>
  <use id="scales-and-weights." xlink:href="#string-18" fill="#000000" fill-opacity="1" stroke="none"/>
  <g id="group-4">
   <path id="Path-4" d="M1291.842 1934.865 L1293.541 1936.574 C1294.4 1937.443 1295.387 1937.385 1296.314 1936.359 L1306.49 1925.148 C1306.754 1925.236 1307.027 1925.217 1307.34 1925.158 L1308.404 1924.963 1309.068 1925.637 1309.029 1926.193 C1308.99 1926.691 1309.117 1927.072 1309.605 1927.551 L1310.367 1928.293 C1310.846 1928.771 1311.461 1928.801 1311.93 1928.332 L1314.84 1925.412 C1315.309 1924.943 1315.289 1924.348 1314.811 1923.869 L1314.039 1923.107 C1313.561 1922.629 1313.189 1922.473 1312.711 1922.512 L1312.135 1922.561 1311.49 1921.926 1311.734 1920.803 C1311.861 1920.236 1311.705 1919.797 1311.119 1919.211 L1308.922 1917.023 C1305.582 1913.703 1301.148 1913.781 1298.258 1916.672 1297.838 1917.082 1297.809 1917.658 1298.043 1918.049 1298.277 1918.41 1298.736 1918.645 1299.381 1918.479 1300.846 1918.137 1302.369 1918.078 1303.795 1919.016 L1303.209 1920.471 C1303.014 1920.949 1302.984 1921.35 1303.111 1921.711 L1292.047 1932.102 C1291.061 1933.02 1290.982 1933.996 1291.842 1934.865 Z M1299.752 1917.043 C1302.184 1915.266 1305.475 1915.568 1307.701 1917.795 L1310.133 1920.207 C1310.367 1920.441 1310.406 1920.627 1310.338 1920.969 L1310.016 1922.453 1311.52 1923.938 1312.506 1923.879 C1312.76 1923.869 1312.838 1923.889 1313.033 1924.084 L1313.609 1924.66 1311.168 1927.102 1310.592 1926.525 C1310.396 1926.33 1310.367 1926.252 1310.377 1925.988 L1310.445 1925.012 1308.951 1923.527 1307.428 1923.781 C1307.105 1923.85 1306.959 1923.82 1306.715 1923.586 L1304.713 1921.584 C1304.459 1921.35 1304.43 1921.184 1304.586 1920.813 L1305.465 1918.723 C1303.902 1917.268 1301.871 1916.643 1299.84 1917.238 1299.684 1917.277 1299.625 1917.15 1299.752 1917.043 Z M1294.273 1935.305 L1293.102 1934.143 C1292.633 1933.684 1292.74 1933.342 1293.141 1932.98 L1303.951 1922.805 1305.416 1924.289 1295.426 1935.275 C1295.074 1935.676 1294.742 1935.773 1294.273 1935.305 Z" fill="#000000" fill-opacity="1" stroke="none"/>
  </g>
  <defs>
   <text id="string-19" transform="matrix(1.0 0.0 0.0 1.0 1288.0 1938.0)" y="15.0" font-size="16" x="1.0" text-decoration="none" font-family="SFProDisplay-Regular, SF Pro Display">Exporting</text>
  </defs>
  <use id="Exporting" xlink:href="#string-19" fill="#000000" fill-opacity="1" stroke="none"/>
  <defs>
   <text id="string-20" transform="matrix(1.0 0.0 0.0 1.0 1288.0 1956.0)" y="15.0" text-decoration="none" font-size="16" x="1.0" font-family="SFProDisplay-Regular, SF Pro Display">Symbols should be outlined when exporting to ensure the</text>
  </defs>
  <use id="Symbols-should-be-outlined-when-exporting-to-ensure-the" xlink:href="#string-20" fill="#000000" fill-opacity="1" stroke="none"/>
  <defs>
   <text id="string-21" transform="matrix(1.0 0.0 0.0 1.0 1288.0 1974.0)" text-decoration="none" font-size="16" x="1.0" font-family="SFProDisplay-Regular, SF Pro Display" y="15.0">design is preserved when submitting to Xcode.</text>
  </defs>
  <use id="design-is-preserved-when-submitting-to-Xcode." xlink:href="#string-21" fill="#000000" fill-opacity="1" stroke="none"/>
  <defs>
   <text id="string-22" transform="matrix(1.0 0.0 0.0 1.0 2948.0 1918.0)" text-decoration="none" font-size="16" x="1.0" font-family="SFProDisplay-Regular, SF Pro Display" y="15.0">Template v.2.0</text>
  </defs>
  <use id="Template-v.2.0" xlink:href="#string-22" fill="#000000" fill-opacity="1" stroke="none"/>
  <defs>
   <text id="string-23" transform="matrix(1.0 0.0 0.0 1.0 2848.0 1936.0)" text-decoration="none" font-size="16" x="1.0" font-family="SFProDisplay-Regular, SF Pro Display" y="15.0">Requires Xcode 12 or greater</text>
  </defs>
  <use id="Requires-Xcode-12-or-greater" xlink:href="#string-23" fill="#000000" fill-opacity="1" stroke="none"/>
  <defs>
   <text id="string-24" transform="matrix(1.0 0.0 0.0 1.0 2769.0 1954.0)" font-family="SFProDisplay-Regular, SF Pro Display" y="15.0" text-decoration="none" x="1.0" font-size="16">Generated from arrowtriangle.down.circle</text>
  </defs>
  <use id="Generated-from-arrowtriangle.down.circle" xlink:href="#string-24" fill="#000000" fill-opacity="1" stroke="none"/>
  <defs>
   <text id="string-25" transform="matrix(1.0 0.0 0.0 1.0 2899.0 1972.0)" y="15.0" font-family="SFProDisplay-Regular, SF Pro Display" font-size="16" x="1.0" text-decoration="none">Typeset at 100 points</text>
  </defs>
  <use id="Typeset-at-100-points" xlink:href="#string-25" fill="#000000" fill-opacity="1" stroke="none"/>
  <defs>
   <text id="string-26" transform="matrix(1.0 0.0 0.0 1.0 262.0 711.0)" x="1.0" font-size="16" text-decoration="none" font-family="SFProDisplay-Regular, SF Pro Display" y="15.0">Small</text>
  </defs>
  <use id="Small" xlink:href="#string-26" fill="#000000" fill-opacity="1" stroke="none"/>
  <defs>
   <text id="string-27" transform="matrix(1.0 0.0 0.0 1.0 262.0 1141.0)" y="15.0" font-size="16" text-decoration="none" font-family="SFProDisplay-Regular, SF Pro Display" x="1.0">Medium</text>
  </defs>
  <use id="Medium-1" xlink:href="#string-27" fill="#000000" fill-opacity="1" stroke="none"/>
  <defs>
   <text id="string-28" transform="matrix(1.0 0.0 0.0 1.0 262.0 1571.0)" font-family="SFProDisplay-Regular, SF Pro Display" y="15.0" font-size="16" text-decoration="none" x="1.0">Large</text>
  </defs>
  <use id="Large" xlink:href="#string-28" fill="#000000" fill-opacity="1" stroke="none"/>
 </g>
 <g id="Guides">
  <g id="H-reference">
   <path id="Path-5" d="M339.977 696 L342.662 696 351.988 671.537 384.752 671.537 394.127 696 396.764 696 369.615 625.541 367.125 625.541 Z M368.346 628.861 L368.443 628.861 383.873 669.291 352.867 669.291 Z" fill="#27aae1" fill-opacity="1" stroke="none"/>
  </g>
  <path id="Baseline-S" d="M263 696 L3036 696" fill="none" stroke="#27aae1" stroke-width="0.5" stroke-opacity="1" stroke-linejoin="round" stroke-linecap="round"/>
  <path id="Capline-S" d="M263 625.541 L3036 625.541" fill="none" stroke="#27aae1" stroke-width="0.5" stroke-opacity="1" stroke-linejoin="round" stroke-linecap="round"/>
  <g id="H-reference-1">
   <path id="Path-6" d="M339.977 1126 L342.662 1126 351.988 1101.537 384.752 1101.537 394.127 1126 396.764 1126 369.615 1055.541 367.125 1055.541 Z M368.346 1058.861 L368.443 1058.861 383.873 1099.291 352.867 1099.291 Z" fill="#27aae1" fill-opacity="1" stroke="none"/>
  </g>
  <path id="Baseline-M" d="M263 1126 L3036 1126" fill="none" stroke="#27aae1" stroke-width="0.5" stroke-opacity="1" stroke-linejoin="round" stroke-linecap="round"/>
  <path id="Capline-M" d="M263 1055.54 L3036 1055.54" fill="none" stroke="#27aae1" stroke-width="0.5" stroke-opacity="1" stroke-linejoin="round" stroke-linecap="round"/>
  <g id="H-reference-2">
   <path id="Path-7" d="M339.977 1556 L342.662 1556 351.988 1531.537 384.752 1531.537 394.127 1556 396.764 1556 369.615 1485.541 367.125 1485.541 Z M368.346 1488.861 L368.443 1488.861 383.873 1529.291 352.867 1529.291 Z" fill="#27aae1" fill-opacity="1" stroke="none"/>
  </g>
  <path id="Baseline-L" d="M263 1556 L3036 1556" fill="none" stroke="#27aae1" stroke-width="0.5" stroke-opacity="1" stroke-linejoin="round" stroke-linecap="round"/>
  <path id="Capline-L" d="M263 1485.54 L3036 1485.54" fill="none" stroke="#27aae1" stroke-width="0.5" stroke-opacity="1" stroke-linejoin="round" stroke-linecap="round"/>
  <path id="left-margin" d="M1391.3 1030.79 L1391.3 1150.12" fill="none" stroke="#00aeef" stroke-width="0.5" stroke-opacity="1" stroke-linejoin="round" stroke-linecap="round"/>
  <path id="right-margin" d="M1508.39 1030.79 L1508.39 1150.12" fill="none" stroke="#00aeef" stroke-width="0.5" stroke-opacity="1" stroke-linejoin="round" stroke-linecap="round"/>
 </g>
 <g id="Symbols">
  <g id="Black-L">
   <path id="Path-8" d="M2960.88 1504.117 L2905.863 1504.117 C2902.64 1504.117 2900.931 1507.926 2902.64 1510.807 L2929.734 1540.232 C2931.296 1542.918 2935.544 1542.967 2937.107 1540.232 L2964.054 1510.807 C2965.812 1507.828 2964.152 1504.117 2960.88 1504.117 Z" fill="#000000" fill-opacity="1" stroke="none"/>
  </g>
  <g id="Heavy-L">
   <path id="Path-9" d="M2664.292 1504.459 L2608.982 1504.459 C2605.857 1504.459 2604.294 1508.17 2605.906 1510.953 L2633.097 1540.281 C2634.659 1542.918 2638.712 1542.967 2640.275 1540.281 L2667.32 1510.953 C2669.029 1508.023 2667.466 1504.459 2664.292 1504.459 Z" fill="#000000" fill-opacity="1" stroke="none"/>
  </g>
  <g id="Bold-L">
   <path id="Path-10" d="M2367.757 1504.85 L2312.153 1504.85 C2309.077 1504.85 2307.661 1508.414 2309.224 1511.148 L2336.513 1540.33 C2338.026 1542.918 2341.884 1542.967 2343.446 1540.33 L2370.589 1511.148 C2372.298 1508.268 2370.784 1504.85 2367.757 1504.85 Z" fill="#000000" fill-opacity="1" stroke="none"/>
  </g>
  <g id="Semibold-L">
   <path id="Path-11" d="M2071.115 1505.143 L2015.267 1505.143 C2012.337 1505.143 2010.97 1508.609 2012.532 1511.295 L2039.87 1540.379 C2041.384 1542.918 2045.095 1543.016 2046.609 1540.379 L2073.8 1511.295 C2075.509 1508.463 2074.093 1505.143 2071.115 1505.143 Z" fill="#000000" fill-opacity="1" stroke="none"/>
  </g>
  <g id="Medium-L">
   <path id="Path-12" d="M1774.477 1505.338 L1718.483 1505.338 C1715.554 1505.338 1714.284 1508.756 1715.798 1511.393 L1743.184 1540.428 C1744.698 1542.918 1748.311 1543.016 1749.825 1540.428 L1777.065 1511.393 C1778.774 1508.561 1777.407 1505.338 1774.477 1505.338 Z" fill="#000000" fill-opacity="1" stroke="none"/>
  </g>
  <g id="Regular-L">
   <path id="Path-13" d="M1477.894 1505.582 L1421.656 1505.582 C1418.823 1505.582 1417.603 1508.951 1419.116 1511.49 L1446.552 1540.428 C1448.066 1542.918 1451.484 1543.016 1453.046 1540.428 L1480.335 1511.49 C1481.995 1508.756 1480.726 1505.582 1477.894 1505.582 Z" fill="#000000" fill-opacity="1" stroke="none"/>
  </g>
  <g id="Light-L">
   <path id="Path-14" d="M1181.42 1505.924 L1124.694 1505.924 C1122.155 1505.924 1121.032 1508.902 1122.399 1511.246 L1150.127 1540.281 C1151.543 1542.625 1154.717 1542.723 1156.133 1540.281 L1183.666 1511.246 C1185.18 1508.805 1183.959 1505.924 1181.42 1505.924 Z" fill="#000000" fill-opacity="1" stroke="none"/>
  </g>
  <g id="Thin-L">
   <path id="Path-15" d="M885.054 1506.314 L827.693 1506.314 C825.496 1506.314 824.47 1508.854 825.691 1510.953 L853.81 1540.086 C855.128 1542.234 857.863 1542.283 859.181 1540.086 L887.056 1510.953 C888.326 1508.854 887.252 1506.314 885.054 1506.314 Z" fill="#000000" fill-opacity="1" stroke="none"/>
  </g>
  <g id="Ultralight-L">
   <path id="Path-16" d="M588.538 1506.559 L530.835 1506.559 C528.833 1506.559 527.807 1508.854 528.979 1510.807 L557.294 1539.988 C558.563 1542.039 561.102 1542.039 562.372 1539.988 L590.393 1510.807 C591.565 1508.854 590.54 1506.559 588.538 1506.559 Z" fill="#000000" fill-opacity="1" stroke="none"/>
  </g>
  <g id="Black-M">
   <path id="Path-17" d="M2955.023 1079.268 L2911.82 1079.268 C2909.329 1079.268 2907.865 1082.1 2909.183 1084.346 L2930.589 1106.813 C2931.761 1108.863 2935.13 1108.863 2936.302 1106.813 L2957.562 1084.346 C2958.88 1082.148 2957.513 1079.268 2955.023 1079.268 Z" fill="#000000" fill-opacity="1" stroke="none"/>
  </g>
  <g id="Heavy-M">
   <path id="Path-18" d="M2658.413 1079.561 L2615.014 1079.561 C2612.573 1079.561 2611.206 1082.393 2612.524 1084.59 L2633.93 1106.91 C2635.102 1108.961 2638.374 1108.961 2639.545 1106.91 L2660.854 1084.59 C2662.172 1082.344 2660.854 1079.561 2658.413 1079.561 Z" fill="#000000" fill-opacity="1" stroke="none"/>
  </g>
  <g id="Bold-M">
   <path id="Path-19" d="M2361.795 1079.902 L2318.201 1079.902 C2315.76 1079.902 2314.539 1082.734 2315.809 1084.883 L2337.264 1107.008 C2338.436 1109.059 2341.561 1109.059 2342.781 1107.008 L2364.09 1084.883 C2365.408 1082.637 2364.188 1079.902 2361.795 1079.902 Z" fill="#000000" fill-opacity="1" stroke="none"/>
  </g>
  <g id="Semibold-M">
   <path id="Path-20" d="M2065.16 1080.098 L2021.371 1080.098 C2018.979 1080.098 2017.904 1082.93 2019.125 1085.078 L2040.58 1107.057 C2041.752 1109.107 2044.779 1109.156 2046 1107.057 L2067.357 1085.078 C2068.676 1082.783 2067.553 1080.098 2065.16 1080.098 Z" fill="#000000" fill-opacity="1" stroke="none"/>
  </g>
  <g id="Medium-M">
   <path id="Path-21" d="M1768.472 1080.293 L1724.585 1080.293 C1722.193 1080.293 1721.167 1083.076 1722.437 1085.225 L1743.892 1107.154 C1745.064 1109.156 1747.993 1109.254 1749.214 1107.154 L1770.572 1085.225 C1771.939 1082.93 1770.816 1080.293 1768.472 1080.293 Z" fill="#000000" fill-opacity="1" stroke="none"/>
  </g>
  <g id="Regular-M">
   <path id="Path-22" d="M1471.837 1080.488 L1427.804 1080.488 C1425.46 1080.488 1424.484 1083.32 1425.753 1085.42 L1447.208 1107.203 C1448.38 1109.205 1451.212 1109.303 1452.482 1107.203 L1473.839 1085.42 C1475.206 1083.125 1474.181 1080.488 1471.837 1080.488 Z" fill="#000000" fill-opacity="1" stroke="none"/>
  </g>
  <g id="Light-M">
   <path id="Path-23" d="M1175.322 1080.781 L1130.899 1080.781 C1128.799 1080.781 1127.871 1083.271 1128.994 1085.176 L1150.742 1107.057 C1151.865 1108.961 1154.404 1109.01 1155.576 1107.057 L1177.178 1085.176 C1178.399 1083.125 1177.422 1080.781 1175.322 1080.781 Z" fill="#000000" fill-opacity="1" stroke="none"/>
  </g>
  <g id="Thin-M">
   <path id="Path-24" d="M878.927 1081.172 L833.917 1081.172 C832.111 1081.172 831.281 1083.223 832.306 1084.883 L854.347 1106.91 C855.372 1108.619 857.57 1108.619 858.644 1106.91 L880.538 1084.883 C881.564 1083.174 880.685 1081.172 878.927 1081.172 Z" fill="#000000" fill-opacity="1" stroke="none"/>
  </g>
  <g id="Ultralight-M">
   <path id="Path-25" d="M582.338 1081.367 L537.035 1081.367 C535.424 1081.367 534.642 1083.223 535.57 1084.736 L557.758 1106.813 C558.783 1108.424 560.834 1108.424 561.81 1106.813 L583.851 1084.736 C584.779 1083.223 583.949 1081.367 582.338 1081.367 Z" fill="#000000" fill-opacity="1" stroke="none"/>
  </g>
  <g id="Black-S">
   <path id="Path-26" d="M2950.435 654.637 L2916.41 654.637 C2914.457 654.637 2913.334 656.883 2914.359 658.641 L2931.201 675.906 C2932.129 677.518 2934.765 677.518 2935.693 675.906 L2952.437 658.641 C2953.463 656.883 2952.388 654.637 2950.435 654.637 Z" fill="#000000" fill-opacity="1" stroke="none"/>
  </g>
  <g id="Heavy-S">
   <path id="Path-27" d="M2653.749 654.832 L2619.626 654.832 C2617.673 654.832 2616.648 657.078 2617.673 658.836 L2634.515 676.004 C2635.443 677.615 2637.982 677.615 2638.958 676.004 L2655.702 658.836 C2656.728 657.078 2655.702 654.832 2653.749 654.832 Z" fill="#000000" fill-opacity="1" stroke="none"/>
  </g>
  <g id="Bold-S">
   <path id="Path-28" d="M2357.084 655.027 L2322.864 655.027 C2320.911 655.027 2319.934 657.322 2320.959 659.08 L2337.801 676.102 C2338.729 677.713 2341.219 677.762 2342.196 676.102 L2358.94 659.08 C2360.014 657.273 2359.038 655.027 2357.084 655.027 Z" fill="#000000" fill-opacity="1" stroke="none"/>
  </g>
  <g id="Semibold-S">
   <path id="Path-29" d="M2060.405 655.223 L2026.087 655.223 C2024.134 655.223 2023.255 657.518 2024.28 659.227 L2041.073 676.15 C2042.05 677.811 2044.491 677.859 2045.468 676.15 L2062.212 659.227 C2063.286 657.371 2062.358 655.223 2060.405 655.223 Z" fill="#000000" fill-opacity="1" stroke="none"/>
  </g>
  <g id="Medium-S">
   <path id="Path-30" d="M1763.693 655.32 L1729.326 655.32 C1727.373 655.32 1726.543 657.615 1727.568 659.373 L1744.361 676.199 C1745.338 677.859 1747.73 677.908 1748.707 676.199 L1765.451 659.373 C1766.574 657.469 1765.646 655.32 1763.693 655.32 Z" fill="#000000" fill-opacity="1" stroke="none"/>
  </g>
  <g id="Regular-S">
   <path id="Path-31" d="M1467.004 655.467 L1432.588 655.467 C1430.635 655.467 1429.853 657.811 1430.879 659.52 L1447.623 676.297 C1448.599 677.908 1450.943 678.006 1451.969 676.297 L1468.713 659.52 C1469.836 657.615 1469.006 655.467 1467.004 655.467 Z" fill="#000000" fill-opacity="1" stroke="none"/>
  </g>
  <g id="Light-S">
   <path id="Path-32" d="M1170.536 655.711 L1135.68 655.711 C1133.971 655.711 1133.239 657.762 1134.166 659.324 L1151.155 676.15 C1152.082 677.664 1154.182 677.762 1155.11 676.15 L1172.049 659.324 C1173.075 657.664 1172.245 655.711 1170.536 655.711 Z" fill="#000000" fill-opacity="1" stroke="none"/>
  </g>
  <g id="Thin-S">
   <path id="Path-33" d="M874.07 656.053 L838.775 656.053 C837.31 656.053 836.627 657.762 837.457 659.08 L854.738 676.004 C855.568 677.371 857.375 677.42 858.205 676.004 L875.388 659.08 C876.219 657.664 875.535 656.053 874.07 656.053 Z" fill="#000000" fill-opacity="1" stroke="none"/>
  </g>
  <g id="Ultralight-S">
   <path id="Path-34" d="M577.505 656.199 L541.917 656.199 C540.648 656.199 539.964 657.713 540.746 658.982 L558.173 675.906 C558.954 677.225 560.615 677.225 561.396 675.906 L578.726 658.982 C579.458 657.713 578.824 656.199 577.505 656.199 Z" fill="#000000" fill-opacity="1" stroke="none"/>
  </g>
 </g>
</svg>
